Coordinates
version=1
nRows=15
nColumns=46
inDegrees=yes

Units are S.I. units (second, meters, Newtons, ...)
Angles are in degrees.

endheader
time	pelvis_tilt	pelvis_list	pelvis_rotation	pelvis_tx	pelvis_ty	pelvis_tz	bb_angle	bb_tx	bb_ty	bb_tz	hip_flexion_r	hip_adduction_r	hip_rotation_r	knee_angle_r	knee_angle_r_beta	ankle_angle_r	subtalar_angle_r	mtp_angle_r	crank_angle_r	hip_flexion_l	hip_adduction_l	hip_rotation_l	knee_angle_l	knee_angle_l_beta	ankle_angle_l	subtalar_angle_l	mtp_angle_l	crank_angle_l	lumbar_extension	lumbar_bending	lumbar_rotation	arm_flex_r	arm_add_r	arm_rot_r	elbow_flex_r	pro_sup_r	wrist_flex_r	wrist_dev_r	arm_flex_l	arm_add_l	arm_rot_l	elbow_flex_l	pro_sup_l	wrist_flex_l	wrist_dev_l
      7.50500000	    -30.92079986	     -7.31245963	    -12.63700711	      0.42269024	      1.17987648	     -0.25184136	      0.00000000	      0.50000000	      0.00000000	      0.25000000	     84.21410424	     10.16028742	     -2.75472954	     98.71600496	      1.72291931	     -0.00086640	     -8.32803713	      0.00000000	      0.00000000	     29.76825205	    -21.36595623	    -13.89847230	     32.85720268	      0.57346637	    -12.49316459	      9.05443817	      0.00000000	      0.00000000	    -66.20549650	      0.91796343	     -3.67406213	     51.27116979	    -17.56856503	     35.34912838	    102.97165966	     50.45373719	      0.00000000	      0.00000000	      2.21053054	    -34.96251437	    -15.01610275	    119.78164282	     53.55929470	      0.00000000	      0.00000000
      7.51000000	    -31.07414338	     -6.84375246	    -12.72607797	      0.42220419	      1.18223469	     -0.25060644	      0.00000000	      0.50000000	      0.00000000	      0.25000000	     83.66082012	     10.65251193	     -2.06080063	     96.76026364	      1.68878519	      0.54420918	     -8.62030012	      0.00000000	      0.00000000	     30.94836137	    -21.31838005	    -13.45272361	     35.16615265	      0.61376515	    -13.19421046	      8.18444127	      0.00000000	      0.00000000	    -66.36354135	      0.36295060	     -3.97796858	     51.38082438	    -17.42015410	     35.18686383	    103.13673124	     50.45824763	      0.00000000	      0.00000000	      2.78103509	    -35.20719602	    -15.12257387	    119.92197892	     53.56694797	      0.00000000	      0.00000000
      7.51500000	    -31.86034254	     -6.59089586	    -12.58473687	      0.42111655	      1.18372136	     -0.24973350	      0.00000000	      0.50000000	      0.00000000	      0.25000000	     83.53217177	     10.85824592	     -1.79657056	     94.46428098	      1.64871273	      0.79411447	     -9.30416263	      0.00000000	      0.00000000	     33.18603202	    -21.32340635	    -12.01358553	     37.72167426	      0.65836742	    -14.26303455	      6.91090842	      0.00000000	      0.00000000	    -65.92889463	      0.27556415	     -3.87139436	     51.02914395	    -17.39223156	     34.49628051	    103.57562361	     50.44971418	      0.00000000	      0.00000000	      3.38297686	    -35.24366516	    -14.92435698	    120.04430648	     53.63228380	      0.00000000	      0.00000000
      7.52000000	    -32.16362182	     -6.10860905	    -12.44598487	      0.42076530	      1.18548914	     -0.24863312	      0.00000000	      0.50000000	      0.00000000	      0.25000000	     82.77176508	     11.09634387	     -1.11406209	     92.13858033	      1.60812159	      1.21651827	    -10.06036815	      0.00000000	      0.00000000	     34.83618771	    -21.12519654	    -11.14008619	     40.25087284	      0.70251026	    -15.15933986	      6.03180019	      0.00000000	      0.00000000	    -65.93802698	     -0.04475803	     -3.07073166	     50.06668475	    -18.20846261	     32.99653907	    105.06100902	     50.47692878	      0.00000000	      0.00000000	      5.79236936	    -35.28684064	    -12.79026211	    119.25712733	     53.91069629	      0.00000000	      0.00000000
      7.52500000	    -32.23713425	     -5.44106291	    -12.35645632	      0.42066790	      1.18720909	     -0.24744044	      0.00000000	      0.50000000	      0.00000000	      0.25000000	     81.65427549	     11.24712989	     -0.23356718	     89.74513659	      1.56634812	      1.85384273	    -10.64523267	      0.00000000	      0.00000000	     36.19542432	    -20.74762671	    -10.50469352	     42.77289527	      0.74652785	    -15.86242859	      5.38059818	      0.00000000	      0.00000000	    -66.10083644	     -0.50415982	     -3.56955856	     50.03976799	    -18.02156924	     32.78625633	    105.30315864	     50.48960339	      0.00000000	      0.00000000	      6.30087167	    -35.43767276	    -12.86086438	    119.35521552	     53.91648138	      0.00000000	      0.00000000
      7.53000000	    -32.60451424	     -4.95763399	    -12.02927422	      0.42036321	      1.18827008	     -0.24668651	      0.00000000	      0.50000000	      0.00000000	      0.25000000	     80.69460622	     11.16309510	      0.35111517	     87.15809548	      1.52119574	      2.20323935	    -11.69120784	      0.00000000	      0.00000000	     38.10434999	    -20.35561400	     -9.31273030	     45.43845752	      0.79305069	    -16.60552919	      4.62114275	      0.00000000	      0.00000000	    -65.93660232	     -0.69387313	     -3.19686424	     49.01407862	    -18.42338703	     31.27623859	    106.34018966	     50.45687643	      0.00000000	      0.00000000	      7.89919239	    -35.31907183	    -11.47131019	    118.98014145	     54.11343631	      0.00000000	      0.00000000
      7.53500000	    -32.56177080	     -4.15134385	    -11.66631374	      0.42058808	      1.18975923	     -0.24633286	      0.00000000	      0.50000000	      0.00000000	      0.25000000	     79.22830846	     10.80596495	      1.24105903	     84.56829314	      1.47599516	      2.70949627	    -12.43465734	      0.00000000	      0.00000000	     39.42399357	    -19.49306689	     -8.46056657	     47.89666659	      0.83595453	    -17.35255025	      3.81930003	      0.00000000	      0.00000000	    -66.11212749	     -1.04896693	     -3.86940324	     48.80418249	    -18.36172544	     30.92744444	    106.50767110	     50.43941016	      0.00000000	      0.00000000	      8.59279582	    -35.43119216	    -11.22007862	    119.00625804	     54.15424578	      0.00000000	      0.00000000
      7.54000000	    -32.51431639	     -3.24827522	    -11.46662004	      0.42055304	      1.19071192	     -0.24550822	      0.00000000	      0.50000000	      0.00000000	      0.25000000	     77.72640877	     10.53959557	      2.21993743	     81.90693152	      1.42954564	      3.23274162	    -13.13906135	      0.00000000	      0.00000000	     40.74826218	    -18.75879882	     -8.01651836	     50.47674460	      0.88098539	    -17.87571856	      3.36881442	      0.00000000	      0.00000000	    -66.15246428	     -1.62523989	     -4.60922213	     48.59574203	    -18.29855193	     30.67967072	    106.70142325	     50.44368700	      0.00000000	      0.00000000	      9.19576846	    -35.54960189	    -11.11103718	    119.04205195	     54.16890689	      0.00000000	      0.00000000
      7.54500000	    -32.62631959	     -2.53742349	    -11.06880706	      0.42054149	      1.19135270	     -0.24477032	      0.00000000	      0.50000000	      0.00000000	      0.25000000	     76.32925655	     10.08161510	      2.85999816	     79.16156776	      1.38163000	      3.33004271	    -13.93518154	      0.00000000	      0.00000000	     42.35175082	    -18.05054348	     -7.22359997	     53.06053634	      0.92608106	    -18.50654401	      2.64888785	      0.00000000	      0.00000000	    -66.10706799	     -1.98059327	     -5.15765337	     48.12922703	    -18.17064126	     30.17121982	    106.85768545	     50.40594413	      0.00000000	      0.00000000	      9.96775019	    -35.69356137	    -10.81033822	    119.06136127	     54.18295709	      0.00000000	      0.00000000
      7.55000000	    -32.49390661	     -1.57026696	    -10.81049273	      0.42091829	      1.19215165	     -0.24396674	      0.00000000	      0.50000000	      0.00000000	      0.25000000	     74.63620476	      9.55454861	      3.83681746	     76.34825602	      1.33252845	      3.47388273	    -14.04111048	      0.00000000	      0.00000000	     43.45920435	    -17.20707925	     -6.96005573	     55.40057995	      0.96692253	    -18.83142150	      2.60512736	      0.00000000	      0.00000000	    -66.15885106	     -2.56454708	     -5.94245602	     47.78312815	    -18.28976410	     29.98299608	    106.85846030	     50.38053021	      0.00000000	      0.00000000	     10.15011128	    -35.58672350	    -10.60298919	    118.89802690	     54.15918491	      0.00000000	      0.00000000
      7.55500000	    -32.64281285	     -0.93068534	    -10.27360859	      0.42073206	      1.19202570	     -0.24351934	      0.00000000	      0.50000000	      0.00000000	      0.25000000	     73.22771601	      8.94573735	      4.40706174	     73.48437227	      1.28254424	      2.90912995	    -15.29793805	      0.00000000	      0.00000000	     45.15999509	    -16.40060449	     -6.10755199	     58.01080372	      1.01247953	    -19.32212419	      1.47690408	      0.00000000	      0.00000000	    -65.86781727	     -3.10002174	     -3.88090247	     44.84723179	    -20.17396325	     26.00065660	    109.46055661	     50.36433167	      0.00000000	      0.00000000	     15.46909193	    -35.05507650	     -4.78039077	    116.82058478	     54.54967288	      0.00000000	      0.00000000
      7.56000000	    -32.48737575	     -0.03024359	     -9.88079299	      0.42089294	      1.19216016	     -0.24301935	      0.00000000	      0.50000000	      0.00000000	      0.25000000	     71.55777503	      8.18841929	      5.25048401	     70.72031800	      1.23430240	      2.68212769	    -15.44688774	      0.00000000	      0.00000000	     46.29746262	    -15.44058187	     -5.72997792	     60.38775072	      1.05396508	    -19.38547347	      0.99233722	      0.00000000	      0.00000000	    -65.90725582	     -3.61126272	     -4.72118252	     44.44401844	    -20.11239646	     25.73693818	    109.46453478	     50.32922493	      0.00000000	      0.00000000	     15.99599926	    -35.10979501	     -4.59881273	    116.83934443	     54.54668165	      0.00000000	      0.00000000
      7.56500000	    -32.36712963	      0.88975955	     -9.37160602	      0.42095609	      1.19194047	     -0.24259494	      0.00000000	      0.50000000	      0.00000000	      0.25000000	     70.00652342	      7.27160536	      6.03665909	     68.05427097	      1.18777110	      2.29581538	    -15.63612152	      0.00000000	      0.00000000	     47.47212703	    -14.39568572	     -5.37247375	     62.69801787	      1.09428685	    -19.43227306	      0.53331038	      0.00000000	      0.00000000	    -65.87134123	     -4.15354237	     -4.39225233	     42.80996995	    -20.94693910	     23.74414009	    110.57420211	     50.27828242	      0.00000000	      0.00000000	     18.36464488	    -34.82662806	     -1.88975080	    115.82385259	     54.72498396	      0.00000000	      0.00000000
      7.57000000	    -32.15786325	      1.80173975	     -9.01660159	      0.42112648	      1.19152187	     -0.24194957	      0.00000000	      0.50000000	      0.00000000	      0.25000000	     68.45834179	      6.44821951	      6.84208670	     65.58044662	      1.14459472	      1.91976838	    -15.29835722	      0.00000000	      0.00000000	     48.47716327	    -13.55343713	     -5.31918765	     65.03878843	      1.13514100	    -19.20107284	      0.40015942	      0.00000000	      0.00000000	    -65.89948460	     -4.66991155	     -5.26886719	     42.45256149	    -21.03405338	     23.62908745	    110.55542726	     50.26179502	      0.00000000	      0.00000000	     18.49874436	    -34.75244689	     -1.76074278	    115.72592111	     54.70697687	      0.00000000	      0.00000000
      7.57500000	    -32.01379525	      2.67251316	     -8.35202206	      0.42109301	      1.19086187	     -0.24178321	      0.00000000	      0.50000000	      0.00000000	      0.25000000	     67.05906300	      5.28038729	      7.35274166	     63.19036600	      1.10287994	      1.00228926	    -15.39975871	      0.00000000	      0.00000000	     49.58335768	    -12.34135249	     -4.84670182	     67.28630825	      1.17436762	    -18.62064856	     -0.26987251	      0.00000000	      0.00000000	    -65.89260816	     -5.04639383	     -5.75730863	     41.17718482	    -20.77128850	     21.90572831	    111.03283185	     50.15424524	      0.00000000	      0.00000000	     19.64899204	    -35.19201783	     -0.37120695	    115.61239705	     54.85197251	      0.00000000	      0.00000000
